<svg width="175" height="182" viewBox="0 0 175 182" fill="none" xmlns="http://www.w3.org/2000/svg">
<path fill-rule="evenodd" clip-rule="evenodd" d="M20.0051 95.9995H51.0679C51.2046 95.9415 51.3403 95.8819 51.4752 95.8208C56.4832 93.5485 60.2453 89.0823 61.5287 83.6242L79.8253 5.81267C80.6257 2.40843 83.6853 0 87.2094 0C90.7107 0 93.7567 2.37803 94.5794 5.7538L113.584 83.7341C114.905 89.1558 118.675 93.5783 123.67 95.8208C123.807 95.882 123.944 95.9416 124.082 95.9995H154.995C166.043 95.9995 175 104.884 175 115.843C175 126.802 166.043 135.686 154.995 135.686H119.623C119.499 135.804 119.377 135.923 119.257 136.044C118.116 137.188 117.126 138.491 116.322 139.925L95.9702 176.233C94.1646 179.454 90.7408 181.452 87.0252 181.452C83.3351 181.452 79.9308 179.481 78.1152 176.295L57.2645 139.701C56.4988 138.358 55.5689 137.131 54.5047 136.044C54.3863 135.923 54.2663 135.804 54.1446 135.686H20.0052C8.95661 135.686 0 126.802 0 115.843C0 104.884 8.95661 95.9995 20.0051 95.9995ZM106.308 95.8208C104.43 93.0096 103.023 89.8555 102.197 86.4644L87.2813 25.2612L72.9373 86.2636C72.1223 89.7294 70.7017 92.9528 68.7913 95.8208H106.308ZM154.995 107.62H20.0051C15.4265 107.62 11.7147 111.301 11.7147 115.843C11.7147 120.385 15.4265 124.066 20.0052 124.066H154.995C159.574 124.066 163.285 120.385 163.285 115.843C163.285 111.301 159.574 107.62 154.995 107.62ZM105.094 136.044H68.6369L87.0146 168.297L105.094 136.044Z" fill="#3BA7F5"/>
</svg>
