<svg width="248" height="83" viewBox="0 0 248 83" fill="none" xmlns="http://www.w3.org/2000/svg">
<path d="M93.3215 20.2828H109.698C112.038 20.2828 114.285 20.5122 116.441 20.9709C118.643 21.4296 120.57 22.2095 122.221 23.3104C123.873 24.3655 125.18 25.8105 126.144 27.6454C127.153 29.4345 127.657 31.6823 127.657 34.3888C127.657 37.4623 127.13 39.9394 126.075 41.8202C125.02 43.701 123.598 45.1689 121.809 46.224C120.02 47.2332 117.932 47.9213 115.547 48.2883C113.207 48.6553 110.753 48.8388 108.184 48.8388H101.991V69H93.3215V20.2828ZM107.221 41.4074C108.46 41.4074 109.744 41.3615 111.074 41.2697C112.405 41.178 113.62 40.9027 114.721 40.444C115.868 39.9853 116.786 39.2972 117.474 38.3797C118.208 37.4623 118.575 36.1778 118.575 34.5264C118.575 33.0126 118.253 31.8199 117.611 30.9483C116.969 30.0308 116.143 29.3427 115.134 28.884C114.125 28.3794 113.001 28.0583 111.762 27.9207C110.524 27.7831 109.331 27.7142 108.184 27.7142H101.991V41.4074H107.221Z" fill="#00ADFF"/>
<path d="M134.767 16.9799H143.025V69H134.767V16.9799Z" fill="#00ADFF"/>
<path d="M150.853 52.4857C150.853 49.8709 151.311 47.5085 152.229 45.3983C153.192 43.2423 154.477 41.4074 156.082 39.8935C157.688 38.3797 159.592 37.21 161.793 36.3843C163.995 35.5585 166.335 35.1457 168.812 35.1457C171.289 35.1457 173.629 35.5585 175.831 36.3843C178.033 37.21 179.936 38.3797 181.542 39.8935C183.147 41.4074 184.409 43.2423 185.326 45.3983C186.29 47.5085 186.771 49.8709 186.771 52.4857C186.771 55.1005 186.29 57.4859 185.326 59.6419C184.409 61.7521 183.147 63.564 181.542 65.0778C179.936 66.5917 178.033 67.7614 175.831 68.5871C173.629 69.4129 171.289 69.8257 168.812 69.8257C166.335 69.8257 163.995 69.4129 161.793 68.5871C159.592 67.7614 157.688 66.5917 156.082 65.0778C154.477 63.564 153.192 61.7521 152.229 59.6419C151.311 57.4859 150.853 55.1005 150.853 52.4857ZM159.11 52.4857C159.11 53.7701 159.316 55.0087 159.729 56.2014C160.188 57.3941 160.83 58.4492 161.656 59.3667C162.527 60.2841 163.56 61.0181 164.752 61.5686C165.945 62.119 167.298 62.3943 168.812 62.3943C170.326 62.3943 171.679 62.119 172.872 61.5686C174.064 61.0181 175.074 60.2841 175.899 59.3667C176.771 58.4492 177.413 57.3941 177.826 56.2014C178.285 55.0087 178.514 53.7701 178.514 52.4857C178.514 51.2012 178.285 49.9627 177.826 48.77C177.413 47.5773 176.771 46.5222 175.899 45.6047C175.074 44.6873 174.064 43.9533 172.872 43.4028C171.679 42.8524 170.326 42.5771 168.812 42.5771C167.298 42.5771 165.945 42.8524 164.752 43.4028C163.56 43.9533 162.527 44.6873 161.656 45.6047C160.83 46.5222 160.188 47.5773 159.729 48.77C159.316 49.9627 159.11 51.2012 159.11 52.4857Z" fill="#00ADFF"/>
<path d="M190.649 42.99V35.9714H197.461V26.4069H205.718V35.9714H214.801V42.99H205.718V57.44C205.718 59.0914 206.016 60.3988 206.613 61.3621C207.255 62.3255 208.493 62.8071 210.328 62.8071C211.062 62.8071 211.865 62.7383 212.737 62.6007C213.608 62.4172 214.296 62.142 214.801 61.775V68.7248C213.929 69.1376 212.851 69.4128 211.567 69.5505C210.328 69.734 209.227 69.8257 208.264 69.8257C206.062 69.8257 204.25 69.5734 202.828 69.0688C201.452 68.6101 200.351 67.899 199.525 66.9357C198.745 65.9265 198.195 64.6879 197.874 63.22C197.599 61.752 197.461 60.0548 197.461 58.1281V42.99H190.649Z" fill="#00ADFF"/>
<path d="M238.862 45.1231C237.256 42.8753 235.1 41.7514 232.394 41.7514C231.293 41.7514 230.215 42.0266 229.16 42.5771C228.105 43.1276 227.577 44.0221 227.577 45.2607C227.577 46.2699 228.013 47.0039 228.884 47.4626C229.756 47.9213 230.857 48.3112 232.187 48.6324C233.518 48.9535 234.94 49.2975 236.453 49.6645C238.013 49.9856 239.458 50.5132 240.788 51.2471C242.119 51.9352 243.22 52.8986 244.091 54.1371C244.963 55.3757 245.399 57.073 245.399 59.229C245.399 61.2016 244.963 62.8759 244.091 64.2521C243.266 65.5824 242.165 66.6605 240.788 67.4862C239.458 68.3119 237.944 68.9082 236.247 69.2752C234.55 69.6422 232.852 69.8257 231.155 69.8257C228.586 69.8257 226.224 69.4587 224.068 68.7248C221.912 67.9908 219.985 66.6605 218.288 64.7338L223.792 59.5731C224.848 60.7658 225.971 61.752 227.164 62.5319C228.403 63.2659 229.894 63.6329 231.637 63.6329C232.233 63.6329 232.852 63.564 233.495 63.4264C234.137 63.2888 234.733 63.0594 235.284 62.7383C235.834 62.4172 236.27 62.0273 236.591 61.5686C236.958 61.064 237.142 60.4905 237.142 59.8483C237.142 58.7015 236.706 57.8528 235.834 57.3024C234.963 56.7519 233.862 56.3161 232.531 55.995C231.201 55.628 229.756 55.3069 228.196 55.0316C226.682 54.7105 225.26 54.2289 223.93 53.5866C222.6 52.8986 221.499 51.9582 220.627 50.7655C219.756 49.5728 219.32 47.9213 219.32 45.8112C219.32 43.9762 219.687 42.3936 220.421 41.0633C221.201 39.6871 222.21 38.5632 223.448 37.6916C224.687 36.82 226.109 36.1778 227.715 35.765C229.32 35.3521 230.949 35.1457 232.6 35.1457C234.802 35.1457 236.981 35.5356 239.137 36.3154C241.293 37.0494 243.036 38.3339 244.367 40.1688L238.862 45.1231Z" fill="#00ADFF"/>
<path fill-rule="evenodd" clip-rule="evenodd" d="M8.34972 45.0096H21.3147C21.3717 44.984 21.4284 44.9577 21.4846 44.9307C23.5749 43.9278 25.1451 41.9567 25.6808 39.5478L33.3174 5.20592C33.6515 3.70347 34.9285 2.64052 36.3993 2.64052C37.8607 2.64052 39.132 3.69005 39.4754 5.17994L47.4074 39.5963C47.9589 41.9891 49.5322 43.941 51.6174 44.9307C51.6743 44.9577 51.7316 44.984 51.7893 45.0096H64.6915C69.303 45.0096 73.0413 48.9306 73.0413 53.7674C73.0413 58.6043 69.303 62.5253 64.6915 62.5253H49.9282C49.8765 62.5771 49.8255 62.6297 49.7752 62.6831C49.2993 63.188 48.886 63.7629 48.5504 64.3959L40.0559 80.4203C39.3023 81.842 37.8733 82.7236 36.3225 82.7236C34.7823 82.7236 33.3614 81.854 32.6036 80.4476L23.901 64.2973C23.5814 63.7042 23.1933 63.1629 22.7491 62.6831C22.6997 62.6297 22.6496 62.5771 22.5988 62.5253H8.34972C3.7383 62.5253 0 58.6043 0 53.7674C0 48.9306 3.7383 45.0096 8.34972 45.0096ZM44.3706 44.9307C43.587 43.69 42.9998 42.2979 42.6548 40.8013L36.4294 13.7895L30.4425 40.7127C30.1023 42.2423 29.5094 43.6649 28.712 44.9307H44.3706ZM64.6915 50.1381H8.34972C6.43868 50.1381 4.88948 51.763 4.88948 53.7674C4.88948 55.7719 6.43868 57.3968 8.34972 57.3968H64.6915C66.6026 57.3968 68.1518 55.7719 68.1518 53.7674C68.1518 51.763 66.6026 50.1381 64.6915 50.1381ZM43.8639 62.6831H28.6476L36.318 76.918L43.8639 62.6831Z" fill="#00ADFF"/>
</svg>
