<svg width="1480" height="1512" viewBox="0 0 1480 1512" fill="none" xmlns="http://www.w3.org/2000/svg">
<rect x="38.1048" y="879.46" width="1403.78" height="185.951" rx="92.9757" stroke="#3BA7F5" stroke-width="76.2096"/>
<mask id="path-2-inside-1" fill="white">
<path d="M675.09 49.5588C681.859 20.5343 707.734 0 737.538 0V0C767.149 0 792.909 20.275 799.867 49.0569L960.588 713.916C974.352 770.853 1019.53 814.865 1076.8 827.138L1196.49 852.786V852.786C1233.4 861.716 1226.92 916.04 1188.95 916.04H293.33C255.359 916.04 248.88 861.716 285.786 852.786V852.786L403.965 827.371C461.626 814.971 506.958 770.417 520.354 712.979L675.09 49.5588Z"/>
</mask>
<path d="M675.09 49.5588C681.859 20.5343 707.734 0 737.538 0V0C767.149 0 792.909 20.275 799.867 49.0569L960.588 713.916C974.352 770.853 1019.53 814.865 1076.8 827.138L1196.49 852.786V852.786C1233.4 861.716 1226.92 916.04 1188.95 916.04H293.33C255.359 916.04 248.88 861.716 285.786 852.786V852.786L403.965 827.371C461.626 814.971 506.958 770.417 520.354 712.979L675.09 49.5588Z" stroke="#3BA7F5" stroke-width="152.419" mask="url(#path-2-inside-1)"/>
<mask id="path-3-inside-2" fill="white">
<path d="M662.151 1468.03C677.506 1495.2 706.297 1512 737.504 1512V1512C768.928 1512 797.883 1494.97 813.153 1467.51L985.271 1157.94C1006.65 1119.49 1043.61 1092.15 1086.64 1082.95L1197.11 1059.36L1458.65 1025.78H24.3872L285.925 1059.36L387.041 1082.44C428.855 1091.98 464.712 1118.7 485.816 1156.04L662.151 1468.03Z"/>
</mask>
<path d="M662.151 1468.03C677.506 1495.2 706.297 1512 737.504 1512V1512C768.928 1512 797.883 1494.97 813.153 1467.51L985.271 1157.94C1006.65 1119.49 1043.61 1092.15 1086.64 1082.95L1197.11 1059.36L1458.65 1025.78H24.3872L285.925 1059.36L387.041 1082.44C428.855 1091.98 464.712 1118.7 485.816 1156.04L662.151 1468.03Z" stroke="#3BA7F5" stroke-width="152.419" mask="url(#path-3-inside-2)"/>
</svg>
